<?xml version="1.0" encoding="UTF-8"?>
<!DOCTYPE svg PUBLIC "-//W3C//DTD SVG 1.1//EN" "http://www.w3.org/Graphics/SVG/1.1/DTD/svg11.dtd">
<!-- Creator: CorelDRAW 2020 (64-Bit) -->
<svg xmlns="http://www.w3.org/2000/svg" xml:space="preserve" width="9mm" height="8.6641mm" version="1.1" style="shape-rendering:geometricPrecision; text-rendering:geometricPrecision; image-rendering:optimizeQuality; fill-rule:evenodd; clip-rule:evenodd"
viewBox="0 0 9420 9068"
 xmlns:xlink="http://www.w3.org/1999/xlink"
 xmlns:xodm="http://www.corel.com/coreldraw/odm/2003">
 <defs>
  <style type="text/css">
   <![CDATA[
    .fil0 {fill:#FBB13F}
    .fil2 {fill:#F26B37}
    .fil1 {fill:#DA3438}
   ]]>
  </style>
 </defs>
 <g id="Capa_x0020_1">
  <metadata id="CorelCorpID_0Corel-Layer"/>
  <path class="fil0" d="M6213 5824c19,-235 63,-403 80,-650 187,-2665 -778,-3170 -686,-1924 85,1151 131,1075 -334,1967 -88,169 -198,362 -268,557 -153,427 -229,820 -231,1354 37,753 454,1383 1010,1777 69,49 178,133 245,163 75,-53 241,-288 318,-372 105,-117 205,-255 316,-377l553 -643c131,-170 286,-308 407,-473l474 -555c57,-63 104,-118 163,-193 104,-131 205,-250 309,-384 489,-628 665,-968 800,-1974 113,-844 24,-1814 -85,-2634 -62,-467 -113,-1234 -512,-1424 -208,-99 -365,44 -441,177 -156,275 -25,727 22,1057 207,1454 217,2014 -705,3262 -98,132 -189,234 -318,374 -216,234 -903,823 -1115,914z"/>
  <path class="fil1" d="M7975 1556c-535,-887 -1926,-1098 -2731,-306 -256,258 -389,463 -507,868 -1,-98 -202,-529 -278,-599 -412,-589 -1258,-934 -1991,-688 -687,164 -1154,812 -1273,1486 -11,61 -21,129 -28,212 -20,248 -19,495 23,729 63,347 213,658 393,957 288,481 626,890 1021,1285 272,271 560,527 854,774 371,311 753,609 1139,900 -1,-12 -1,-23 -2,-35l0 -5 0 -5c2,-506 71,-940 242,-1416 73,-203 179,-389 278,-580 83,-160 170,-322 244,-486 44,-98 84,-199 104,-305 24,-125 22,-256 16,-383 -11,-231 -33,-464 -51,-695 -19,-254 -16,-776 315,-838 160,-30 291,78 379,201 106,149 176,346 224,522 170,628 171,1394 126,2038 -6,90 -18,178 -30,266 89,-69 177,-141 263,-214 98,-83 195,-168 290,-255 69,-64 140,-130 204,-199 107,-116 212,-231 306,-359 563,-762 763,-1245 781,-1868 12,-408 -103,-661 -310,-1004z"/>
  <path class="fil2" d="M3389 9067c262,-66 616,-417 772,-652 132,-198 387,-747 396,-1046 -1886,-1417 -2613,-2203 -3126,-3059 -529,-881 -533,-1412 -333,-2577 49,-366 193,-1038 132,-1380 -39,-220 -158,-380 -422,-347 -208,27 -317,220 -393,396 -214,493 -374,2122 -404,2713 -58,1160 89,2038 696,2795 195,243 765,891 886,1059 55,77 111,137 178,214l1249 1465c127,150 239,275 369,420z"/>
 </g>
</svg>
